<?xml version="1.0" standalone="no"?>
<!DOCTYPE svg PUBLIC "-//W3C//DTD SVG 20010904//EN"
 "http://www.w3.org/TR/2001/REC-SVG-20010904/DTD/svg10.dtd">
<svg version="1.0" xmlns="http://www.w3.org/2000/svg"
 width="568.000000pt" height="568.000000pt" viewBox="0 0 568.000000 568.000000"
 preserveAspectRatio="xMidYMid meet">
<metadata>
Created by potrace 1.14, written by Peter Selinger 2001-2017
</metadata>
<g transform="translate(0.000000,568.000000) scale(0.100000,-0.100000)"
fill="#000000" stroke="none">
<path d="M3791 5664 c-215 -58 -413 -270 -440 -472 -5 -37 -13 -259 -16 -494
l-7 -426 -217 -61 c-290 -81 -508 -137 -514 -131 -3 3 -10 160 -16 350 -7 253
-14 356 -24 386 -62 173 -193 311 -370 388 -69 30 -77 31 -212 31 -122 0 -148
-3 -205 -23 -138 -50 -285 -178 -348 -304 -64 -127 -64 -134 -69 -680 l-5
-498 -42 -11 c-361 -94 -602 -166 -661 -196 -169 -84 -268 -204 -325 -392 -20
-63 -22 -88 -17 -180 7 -134 32 -218 98 -315 63 -94 132 -156 231 -206 169
-84 311 -90 557 -21 79 23 148 41 153 41 10 0 11 -527 0 -534 -5 -3 -134 -39
-288 -81 -341 -94 -384 -108 -455 -150 -122 -75 -224 -198 -269 -326 -28 -81
-37 -220 -20 -317 40 -241 250 -444 505 -489 110 -19 186 -11 379 42 71 20
135 34 143 31 7 -3 13 -20 13 -38 0 -60 30 -162 72 -248 103 -208 314 -340
544 -340 212 0 394 97 512 274 87 130 94 163 101 450 l6 248 155 44 c204 58
565 154 578 154 6 0 13 -38 16 -88 16 -228 58 -334 186 -463 212 -215 534
-239 794 -60 101 70 208 230 235 352 6 25 14 171 17 323 l7 276 81 24 c45 14
139 41 210 60 164 46 251 92 335 176 146 146 211 334 178 520 -39 220 -150
371 -344 467 l-96 48 -184 0 -183 0 0 261 0 261 203 58 c243 69 282 84 356
134 111 76 200 193 242 319 18 55 20 81 17 210 -3 145 -3 148 -39 222 -90 186
-233 308 -420 356 -50 13 -88 15 -174 10 -60 -3 -124 -9 -142 -12 -31 -6 -32
-5 -37 37 -3 24 -9 159 -14 299 -9 227 -12 262 -32 315 -71 186 -240 341 -426
390 -73 19 -240 19 -313 -1z m1080 -1214 c169 -32 307 -177 339 -357 33 -182
-87 -386 -269 -457 -82 -32 -2292 -636 -2327 -636 -19 0 -21 8 -27 107 -4 58
-7 254 -7 434 l0 327 48 16 c26 8 288 81 582 162 294 80 740 202 990 271 558
153 561 154 671 133z m-3523 -1362 l-3 -442 -140 -38 c-231 -63 -287 -72 -358
-58 -285 56 -441 352 -320 608 31 66 120 157 189 194 45 24 572 176 617 177
16 1 17 -25 15 -441z m1982 -368 l0 -260 -23 -9 c-20 -8 -345 -98 -614 -171
l-102 -27 -6 61 c-11 102 -2 438 13 463 7 13 25 26 40 29 15 4 164 44 332 90
168 45 317 83 333 83 l27 1 0 -260z m1580 -102 c153 -46 262 -167 296 -328 40
-191 -78 -401 -264 -470 -55 -21 -274 -82 -339 -95 l-33 -7 0 439 0 439 68 17
c109 27 192 29 272 5z m-1580 -803 l0 -435 -32 -13 c-18 -8 -195 -57 -393
-111 -198 -54 -463 -126 -590 -161 -761 -210 -1271 -346 -1334 -355 -218 -31
-410 85 -476 289 -23 72 -17 214 13 291 25 64 79 133 140 180 70 54 22 40
1692 494 476 129 881 239 900 244 19 6 45 11 58 11 l22 1 0 -435z"/>
</g>
</svg>
